REM DIRINDEX 1\2,1\3\7,1\3\8,1\4\9,1\4\10,1\4\11,1\5\12,1\5\13,1\5\14,1\6\15,1\6\16,1\6\17
REM DIRNAME "folder01","folder02","folder03","folder04","folder05","folder06","folder07","folder08","folder09","folder10","folder11","folder12","folder13","folder14","folder15","folder16","folder17"
TITLE ""
FILE "2Q_k_011-020.mp3" MP3
  TRACK 01 AUDIO
    TITLE "12:cjc174_1363"
    INDEX 01 00:00:00
  TRACK 02 AUDIO
    TITLE "0:"
    INDEX 01 00:02:15
  TRACK 03 AUDIO
    TITLE "13:cjc174_1364"
    INDEX 01 00:02:62
  TRACK 04 AUDIO
    TITLE "0:"
    INDEX 01 00:05:68
  TRACK 05 AUDIO
    TITLE "14:cjc174_1365"
    INDEX 01 00:06:40
  TRACK 06 AUDIO
    TITLE "14:cjc174_1366"
    INDEX 01 00:10:32
  TRACK 07 AUDIO
    TITLE "0:"
    INDEX 01 00:12:47
  TRACK 08 AUDIO
    TITLE "12:cjc174_1367"
    INDEX 01 00:13:17
  TRACK 09 AUDIO
    TITLE "0:"
    INDEX 01 00:15:24
  TRACK 10 AUDIO
    TITLE "13:cjc174_1368"
    INDEX 01 00:15:71
  TRACK 11 AUDIO
    TITLE "0:"
    INDEX 01 00:18:51
  TRACK 12 AUDIO
    TITLE "14:cjc174_1369"
    INDEX 01 00:19:21
  TRACK 13 AUDIO
    TITLE "14:cjc174_1370"
    INDEX 01 00:21:48
  TRACK 14 AUDIO
    TITLE "0:"
    INDEX 01 00:22:51
  TRACK 15 AUDIO
    TITLE "12:cjc174_1371"
    INDEX 01 00:23:21
  TRACK 16 AUDIO
    TITLE "0:"
    INDEX 01 00:25:04
  TRACK 17 AUDIO
    TITLE "13:cjc174_1372"
    INDEX 01 00:25:49
  TRACK 18 AUDIO
    TITLE "0:"
    INDEX 01 00:27:42
  TRACK 19 AUDIO
    TITLE "14:cjc174_1373"
    INDEX 01 00:28:14
  TRACK 20 AUDIO
    TITLE "14:cjc174_1374"
    INDEX 01 00:30:06
  TRACK 21 AUDIO
    TITLE "0:"
    INDEX 01 00:32:08
  TRACK 22 AUDIO
    TITLE "12:cjc174_1375"
    INDEX 01 00:32:57
  TRACK 23 AUDIO
    TITLE "0:"
    INDEX 01 00:34:54
  TRACK 24 AUDIO
    TITLE "13:cjc174_1376"
    INDEX 01 00:35:26
  TRACK 25 AUDIO
    TITLE "0:"
    INDEX 01 00:37:00
  TRACK 26 AUDIO
    TITLE "14:cjc174_1377"
    INDEX 01 00:37:45
  TRACK 27 AUDIO
    TITLE "14:cjc174_1378"
    INDEX 01 00:40:14
  TRACK 28 AUDIO
    TITLE "0:"
    INDEX 01 00:42:42
  TRACK 29 AUDIO
    TITLE "12:cjc174_1379"
    INDEX 01 00:43:12
  TRACK 30 AUDIO
    TITLE "0:"
    INDEX 01 00:44:64
  TRACK 31 AUDIO
    TITLE "13:cjc174_1380"
    INDEX 01 00:45:34
  TRACK 32 AUDIO
    TITLE "0:"
    INDEX 01 00:48:70
  TRACK 33 AUDIO
    TITLE "14:cjc174_1381"
    INDEX 01 00:49:40
  TRACK 34 AUDIO
    TITLE "14:cjc174_1382"
    INDEX 01 00:52:40
  TRACK 35 AUDIO
    TITLE "0:"
    INDEX 01 00:55:66
  TRACK 36 AUDIO
    TITLE "12:cjc174_1383"
    INDEX 01 00:56:38
  TRACK 37 AUDIO
    TITLE "0:"
    INDEX 01 00:58:12
  TRACK 38 AUDIO
    TITLE "13:cjc174_1384"
    INDEX 01 00:58:57
  TRACK 39 AUDIO
    TITLE "0:"
    INDEX 01 01:01:63
  TRACK 40 AUDIO
    TITLE "14:cjc174_1385"
    INDEX 01 01:02:33
  TRACK 41 AUDIO
    TITLE "14:cjc174_1386"
    INDEX 01 01:06:56
  TRACK 42 AUDIO
    TITLE "0:"
    INDEX 01 01:10:05
  TRACK 43 AUDIO
    TITLE "12:cjc174_1387"
    INDEX 01 01:10:50
  TRACK 44 AUDIO
    TITLE "0:"
    INDEX 01 01:12:27
  TRACK 45 AUDIO
    TITLE "13:cjc174_1388"
    INDEX 01 01:13:09
  TRACK 46 AUDIO
    TITLE "0:"
    INDEX 01 01:15:61
  TRACK 47 AUDIO
    TITLE "14:cjc174_1389"
    INDEX 01 01:16:31
  TRACK 48 AUDIO
    TITLE "14:cjc174_1390"
    INDEX 01 01:20:21
  TRACK 49 AUDIO
    TITLE "0:"
    INDEX 01 01:21:70
  TRACK 50 AUDIO
    TITLE "12:cjc174_1391"
    INDEX 01 01:22:42
  TRACK 51 AUDIO
    TITLE "0:"
    INDEX 01 01:24:01
  TRACK 52 AUDIO
    TITLE "13:cjc174_1392"
    INDEX 01 01:24:46
  TRACK 53 AUDIO
    TITLE "0:"
    INDEX 01 01:26:45
  TRACK 54 AUDIO
    TITLE "14:cjc174_1393"
    INDEX 01 01:27:17
  TRACK 55 AUDIO
    TITLE "14:cjc174_1394"
    INDEX 01 01:30:19
  TRACK 56 AUDIO
    TITLE "0:"
    INDEX 01 01:35:60
  TRACK 57 AUDIO
    TITLE "12:cjc174_1395"
    INDEX 01 01:36:32
  TRACK 58 AUDIO
    TITLE "0:"
    INDEX 01 01:40:10
  TRACK 59 AUDIO
    TITLE "13:cjc174_1396"
    INDEX 01 01:40:57
  TRACK 60 AUDIO
    TITLE "0:"
    INDEX 01 01:44:02
  TRACK 61 AUDIO
    TITLE "14:cjc174_1397"
    INDEX 01 01:44:47
  TRACK 62 AUDIO
    TITLE "14:cjc174_1398"
    INDEX 01 01:49:36
  TRACK 63 AUDIO
    TITLE "0:"
    INDEX 01 01:52:09
  TRACK 64 AUDIO
    TITLE "12:cjc174_1399"
    INDEX 01 01:52:54
  TRACK 65 AUDIO
    TITLE "0:"
    INDEX 01 01:53:73
  TRACK 66 AUDIO
    TITLE "13:cjc174_1400"
    INDEX 01 01:54:51
  TRACK 67 AUDIO
    TITLE "0:"
    INDEX 01 01:55:49
  TRACK 68 AUDIO
    TITLE "14:cjc174_1401"
    INDEX 01 01:56:19
  TRACK 69 AUDIO
    TITLE "14:cjc174_1402"
    INDEX 01 01:59:43
  TRACK 70 AUDIO
    TITLE "0:"
    INDEX 01 02:01:36
